<?xml version="1.0" encoding="utf-8"?>
<!-- Generator: Adobe Illustrator 23.1.0, SVG Export Plug-In . SVG Version: 6.00 Build 0)  -->
<svg version="1.1" id="Layer_1" xmlns="http://www.w3.org/2000/svg" xmlns:xlink="http://www.w3.org/1999/xlink" x="0px" y="0px"
	 viewBox="0 0 864 864" style="enable-background:new 0 0 864 864;" xml:space="preserve">
<path d="M36,20.8L0,41.6v-2.9v-2.9V0h31h2.5H36V20.8z M122.4,20.8V0h-2.5h-2.5h-62h-2.5h-2.5v20.8l36,20.8L122.4,20.8z M208.8,20.8
	V0h-5v17.9l-31,17.9l-31-17.9V0h-5v20.8l36,20.8L208.8,20.8z M295.2,20.8V0h-2.5h-2.5h-62h-2.5h-2.5v20.8l36,20.8L295.2,20.8z
	 M381.6,20.8V0h-5v17.9l-31,17.9l-31-17.9V0h-5v20.8l36,20.8L381.6,20.8z M468,20.8V0h-5v17.9l-31,17.9l-31-17.9V0h-5v20.8l36,20.8
	L468,20.8z M554.4,20.8V0h-2.5h-2.5h-62h-2.5h-2.5v20.8l36,20.8L554.4,20.8z M640.8,20.8V0h-2.5h-2.5h-62h-2.5h-2.5v20.8l36,20.8
	L640.8,20.8z M727.2,20.8V0h-5v17.9l-31,17.9l-31-17.9V0h-5v20.8l36,20.8L727.2,20.8z M813.6,20.8V0h-2.5h-2.5h-62h-2.5h-2.5v20.8
	l36,20.8L813.6,20.8z M833,0h-2.5H828v20.8l36,20.8v-2.9v-2.9V0H833z M36,123.2L0,102.4v2.9v2.9v71.6v2.9v2.9l36-20.8V123.2z
	 M50.4,123.2v41.6l36,20.8l36-20.8v-41.6l-36-20.8L50.4,123.2z M136.8,123.2v41.6l36,20.8l36-20.8v-41.6l-36-20.8L136.8,123.2z
	 M223.2,123.2v41.6l36,20.8l36-20.8v-41.6l-36-20.8L223.2,123.2z M309.6,123.2v41.6l36,20.8l36-20.8v-41.6l-36-20.8L309.6,123.2z
	 M396,123.2v41.6l36,20.8l36-20.8v-41.6l-36-20.8L396,123.2z M482.4,123.2v41.6l36,20.8l36-20.8v-41.6l-36-20.8L482.4,123.2z
	 M568.8,123.2v41.6l36,20.8l36-20.8v-41.6l-36-20.8L568.8,123.2z M691.2,102.4l36,20.8v41.6l-36,20.8l-36-20.8v-41.6L691.2,102.4z
	 M722.2,126.1l-31-17.9l-31,17.9v35.8l31,17.9l31-17.9V126.1z M813.6,164.8l-36,20.8l-36-20.8v-41.6l36-20.8l36,20.8V164.8z
	 M808.6,126.1l-31-17.9l-31,17.9v35.8l31,17.9l31-17.9V126.1z M828,164.8l36,20.8v-2.9v-2.9v-71.6v-2.9v-2.9l-36,20.8V164.8z
	 M36,267.2L0,246.4v2.9v2.9v71.6v2.9v2.9l36-20.8V267.2z M50.4,267.2v41.6l36,20.8l36-20.8v-41.6l-36-20.8L50.4,267.2z M172.8,246.4
	l36,20.8v41.6l-36,20.8l-36-20.8v-41.6L172.8,246.4z M203.8,270.1l-31-17.9l-31,17.9v35.8l31,17.9l31-17.9V270.1z M223.2,267.2v41.6
	l36,20.8l36-20.8v-41.6l-36-20.8L223.2,267.2z M345.6,246.4l36,20.8v41.6l-36,20.8l-36-20.8v-41.6L345.6,246.4z M376.6,270.1
	l-31-17.9l-31,17.9v35.8l31,17.9l31-17.9V270.1z M396,267.2v41.6l36,20.8l36-20.8v-41.6l-36-20.8L396,267.2z M518.4,246.4l36,20.8
	v41.6l-36,20.8l-36-20.8v-41.6L518.4,246.4z M549.4,270.1l-31-17.9l-31,17.9v35.8l31,17.9l31-17.9V270.1z M604.8,246.4l36,20.8v41.6
	l-36,20.8l-36-20.8v-41.6L604.8,246.4z M635.8,270.1l-31-17.9l-31,17.9v35.8l31,17.9l31-17.9V270.1z M691.2,246.4l36,20.8v41.6
	l-36,20.8l-36-20.8v-41.6L691.2,246.4z M722.2,270.1l-31-17.9l-31,17.9v35.8l31,17.9l31-17.9V270.1z M813.6,267.2l-36-20.8l-36,20.8
	v41.6l36,20.8l36-20.8V267.2z M828,308.8l36,20.8v-2.9v-2.9v-71.6v-2.9v-2.9l-36,20.8V308.8z M36,411.2L0,390.4v5.8l31,17.9v35.8
	L0,467.8v5.8l36-20.8V411.2z M50.4,452.8l36,20.8l36-20.8v-41.6l-36-20.8l-36,20.8V452.8z M172.8,390.4l36,20.8v41.6l-36,20.8
	l-36-20.8v-41.6L172.8,390.4z M203.8,414.1l-31-17.9l-31,17.9v35.8l31,17.9l31-17.9V414.1z M259.2,390.4l36,20.8v41.6l-36,20.8
	l-36-20.8v-41.6L259.2,390.4z M290.2,414.1l-31-17.9l-31,17.9v35.8l31,17.9l31-17.9V414.1z M345.6,390.4l36,20.8v41.6l-36,20.8
	l-36-20.8v-41.6L345.6,390.4z M376.6,414.1l-31-17.9l-31,17.9v35.8l31,17.9l31-17.9V414.1z M432,390.4l36,20.8v41.6l-36,20.8
	l-36-20.8v-41.6L432,390.4z M463,414.1l-31-17.9l-31,17.9v35.8l31,17.9l31-17.9V414.1z M482.4,411.2v41.6l36,20.8l36-20.8v-41.6
	l-36-20.8L482.4,411.2z M568.8,411.2v41.6l36,20.8l36-20.8v-41.6l-36-20.8L568.8,411.2z M655.2,411.2v41.6l36,20.8l36-20.8v-41.6
	l-36-20.8L655.2,411.2z M813.6,411.2l-36-20.8l-36,20.8v41.6l36,20.8l36-20.8V411.2z M828,452.8l36,20.8v-5.8l-31-17.9v-35.8
	l31-17.9v-5.8l-36,20.8V452.8z M36,555.2L0,534.4v2.9v2.9v71.6v2.9v2.9l36-20.8V555.2z M50.4,555.2l36-20.8l36,20.8v41.6l-36,20.8
	l-36-20.8V555.2z M55.4,593.9l31,17.9l31-17.9v-35.8l-31-17.9l-31,17.9V593.9z M208.8,596.8v-41.6l-36-20.8l-36,20.8v41.6l36,20.8
	L208.8,596.8z M295.2,596.8v-41.6l-36-20.8l-36,20.8v41.6l36,20.8L295.2,596.8z M345.6,617.6l-36-20.8v-41.6l36-20.8l36,20.8v41.6
	L345.6,617.6z M314.6,593.9l31,17.9l31-17.9v-35.8l-31-17.9l-31,17.9V593.9z M468,596.8v-41.6l-36-20.8l-36,20.8v41.6l36,20.8
	L468,596.8z M518.4,617.6l-36-20.8v-41.6l36-20.8l36,20.8v41.6L518.4,617.6z M487.4,593.9l31,17.9l31-17.9v-35.8l-31-17.9l-31,17.9
	V593.9z M604.8,617.6l-36-20.8v-41.6l36-20.8l36,20.8v41.6L604.8,617.6z M573.8,593.9l31,17.9l31-17.9v-35.8l-31-17.9l-31,17.9
	V593.9z M691.2,617.6l-36-20.8v-41.6l36-20.8l36,20.8v41.6L691.2,617.6z M660.2,593.9l31,17.9l31-17.9v-35.8l-31-17.9l-31,17.9
	V593.9z M777.6,617.6l-36-20.8v-41.6l36-20.8l36,20.8v41.6L777.6,617.6z M746.6,593.9l31,17.9l31-17.9v-35.8l-31-17.9l-31,17.9
	V593.9z M828,596.8l36,20.8v-2.9v-2.9v-71.6v-2.9v-2.9l-36,20.8V596.8z M36,699.2L0,678.4v5.8l31,17.9v35.8L0,755.8v5.8l36-20.8
	V699.2z M86.4,761.6l-36-20.8v-41.6l36-20.8l36,20.8v41.6L86.4,761.6z M55.4,737.9l31,17.9l31-17.9v-35.8l-31-17.9l-31,17.9V737.9z
	 M208.8,740.8v-41.6l-36-20.8l-36,20.8v41.6l36,20.8L208.8,740.8z M295.2,740.8v-41.6l-36-20.8l-36,20.8v41.6l36,20.8L295.2,740.8z
	 M381.6,740.8v-41.6l-36-20.8l-36,20.8v41.6l36,20.8L381.6,740.8z M432,761.6l-36-20.8v-41.6l36-20.8l36,20.8v41.6L432,761.6z
	 M401,737.9l31,17.9l31-17.9v-35.8l-31-17.9l-31,17.9V737.9z M518.4,761.6l-36-20.8v-41.6l36-20.8l36,20.8v41.6L518.4,761.6z
	 M487.4,737.9l31,17.9l31-17.9v-35.8l-31-17.9l-31,17.9V737.9z M604.8,761.6l-36-20.8v-41.6l36-20.8l36,20.8v41.6L604.8,761.6z
	 M573.8,737.9l31,17.9l31-17.9v-35.8l-31-17.9l-31,17.9V737.9z M727.2,740.8v-41.6l-36-20.8l-36,20.8v41.6l36,20.8L727.2,740.8z
	 M813.6,740.8v-41.6l-36-20.8l-36,20.8v41.6l36,20.8L813.6,740.8z M828,740.8l36,20.8v-5.8l-31-17.9v-35.8l31-17.9v-5.8l-36,20.8
	V740.8z M0,825.3v2.9V864h31h2.5H36v-20.8L0,822.4V825.3z M50.4,843.2V864h2.5h2.5h62h2.5h2.5v-20.8l-36-20.8L50.4,843.2z
	 M136.8,843.2V864h5v-17.9l31-17.9l31,17.9V864h5v-20.8l-36-20.8L136.8,843.2z M223.2,843.2V864h2.5h2.5h62h2.5h2.5v-20.8l-36-20.8
	L223.2,843.2z M309.6,843.2V864h5v-17.9l31-17.9l31,17.9V864h5v-20.8l-36-20.8L309.6,843.2z M396,843.2V864h5v-17.9l31-17.9l31,17.9
	V864h5v-20.8l-36-20.8L396,843.2z M482.4,843.2V864h2.5h2.5h62h2.5h2.5v-20.8l-36-20.8L482.4,843.2z M568.8,843.2V864h2.5h2.5h62
	h2.5h2.5v-20.8l-36-20.8L568.8,843.2z M655.2,843.2V864h5v-17.9l31-17.9l31,17.9V864h5v-20.8l-36-20.8L655.2,843.2z M741.6,843.2
	V864h2.5h2.5h62h2.5h2.5v-20.8l-36-20.8L741.6,843.2z M828,864h2.5h2.5h31v-35.8v-2.9v-2.9l-36,20.8V864z M7.2,51.2l36-20.8l36,20.8
	v41.6l-36,20.8l-36-20.8V51.2z M12.2,89.9l31,17.9l31-17.9V54.1l-31-17.9l-31,17.9V89.9z M93.6,51.2l36-20.8l36,20.8v41.6l-36,20.8
	l-36-20.8V51.2z M98.6,89.9l31,17.9l31-17.9V54.1l-31-17.9l-31,17.9V89.9z M180,51.2l36-20.8l36,20.8v41.6l-36,20.8l-36-20.8V51.2z
	 M185,89.9l31,17.9l31-17.9V54.1l-31-17.9l-31,17.9V89.9z M266.4,92.8l36,20.8l36-20.8V51.2l-36-20.8l-36,20.8V92.8z M352.8,92.8
	l36,20.8l36-20.8V51.2l-36-20.8l-36,20.8V92.8z M439.2,92.8l36,20.8l36-20.8V51.2l-36-20.8l-36,20.8V92.8z M525.6,92.8l36,20.8
	l36-20.8V51.2l-36-20.8l-36,20.8V92.8z M612,92.8l36,20.8l36-20.8V51.2l-36-20.8l-36,20.8V92.8z M698.4,92.8l36,20.8l36-20.8V51.2
	l-36-20.8l-36,20.8V92.8z M856.8,92.8l-36,20.8l-36-20.8V51.2l36-20.8l36,20.8V92.8z M851.8,54.1l-31-17.9l-31,17.9v35.8l31,17.9
	l31-17.9V54.1z M43.2,174.4l36,20.8v41.6l-36,20.8l-36-20.8v-41.6L43.2,174.4z M74.2,198.1l-31-17.9l-31,17.9v35.8l31,17.9l31-17.9
	V198.1z M129.6,174.4l36,20.8v41.6l-36,20.8l-36-20.8v-41.6L129.6,174.4z M160.6,198.1l-31-17.9l-31,17.9v35.8l31,17.9l31-17.9
	V198.1z M216,174.4l36,20.8v41.6l-36,20.8l-36-20.8v-41.6L216,174.4z M247,198.1l-31-17.9l-31,17.9v35.8l31,17.9l31-17.9V198.1z
	 M266.4,195.2v41.6l36,20.8l36-20.8v-41.6l-36-20.8L266.4,195.2z M388.8,174.4l36,20.8v41.6l-36,20.8l-36-20.8v-41.6L388.8,174.4z
	 M419.8,198.1l-31-17.9l-31,17.9v35.8l31,17.9l31-17.9V198.1z M439.2,195.2v41.6l36,20.8l36-20.8v-41.6l-36-20.8L439.2,195.2z
	 M525.6,195.2v41.6l36,20.8l36-20.8v-41.6l-36-20.8L525.6,195.2z M612,195.2v41.6l36,20.8l36-20.8v-41.6l-36-20.8L612,195.2z
	 M734.4,174.4l36,20.8v41.6l-36,20.8l-36-20.8v-41.6L734.4,174.4z M765.4,198.1l-31-17.9l-31,17.9v35.8l31,17.9l31-17.9V198.1z
	 M856.8,195.2l-36-20.8l-36,20.8v41.6l36,20.8l36-20.8V195.2z M7.2,380.8l36,20.8l36-20.8v-41.6l-36-20.8l-36,20.8V380.8z
	 M129.6,318.4l36,20.8v41.6l-36,20.8l-36-20.8v-41.6L129.6,318.4z M160.6,342.1l-31-17.9l-31,17.9v35.8l31,17.9l31-17.9V342.1z
	 M216,318.4l36,20.8v41.6l-36,20.8l-36-20.8v-41.6L216,318.4z M247,342.1l-31-17.9l-31,17.9v35.8l31,17.9l31-17.9V342.1z
	 M266.4,339.2v41.6l36,20.8l36-20.8v-41.6l-36-20.8L266.4,339.2z M388.8,318.4l36,20.8v41.6l-36,20.8l-36-20.8v-41.6L388.8,318.4z
	 M419.8,342.1l-31-17.9l-31,17.9v35.8l31,17.9l31-17.9V342.1z M475.2,318.4l36,20.8v41.6l-36,20.8l-36-20.8v-41.6L475.2,318.4z
	 M506.2,342.1l-31-17.9l-31,17.9v35.8l31,17.9l31-17.9V342.1z M561.6,318.4l36,20.8v41.6l-36,20.8l-36-20.8v-41.6L561.6,318.4z
	 M592.6,342.1l-31-17.9l-31,17.9v35.8l31,17.9l31-17.9V342.1z M612,339.2v41.6l36,20.8l36-20.8v-41.6l-36-20.8L612,339.2z
	 M770.4,380.8v-41.6l-36-20.8l-36,20.8v41.6l36,20.8L770.4,380.8z M856.8,380.8l-36,20.8l-36-20.8v-41.6l36-20.8l36,20.8V380.8z
	 M851.8,342.1l-31-17.9l-31,17.9v35.8l31,17.9l31-17.9V342.1z M7.2,524.8l36,20.8l36-20.8v-41.6l-36-20.8l-36,20.8V524.8z
	 M129.6,545.6l-36-20.8v-41.6l36-20.8l36,20.8v41.6L129.6,545.6z M98.6,521.9l31,17.9l31-17.9v-35.8l-31-17.9l-31,17.9V521.9z
	 M216,545.6l-36-20.8v-41.6l36-20.8l36,20.8v41.6L216,545.6z M185,521.9l31,17.9l31-17.9v-35.8l-31-17.9l-31,17.9V521.9z
	 M302.4,545.6l-36-20.8v-41.6l36-20.8l36,20.8v41.6L302.4,545.6z M271.4,521.9l31,17.9l31-17.9v-35.8l-31-17.9l-31,17.9V521.9z
	 M388.8,545.6l-36-20.8v-41.6l36-20.8l36,20.8v41.6L388.8,545.6z M357.8,521.9l31,17.9l31-17.9v-35.8l-31-17.9l-31,17.9V521.9z
	 M511.2,524.8v-41.6l-36-20.8l-36,20.8v41.6l36,20.8L511.2,524.8z M597.6,524.8v-41.6l-36-20.8l-36,20.8v41.6l36,20.8L597.6,524.8z
	 M648,545.6l-36-20.8v-41.6l36-20.8l36,20.8v41.6L648,545.6z M617,521.9l31,17.9l31-17.9v-35.8l-31-17.9l-31,17.9V521.9z
	 M770.4,524.8v-41.6l-36-20.8l-36,20.8v41.6l36,20.8L770.4,524.8z M856.8,524.8l-36,20.8l-36-20.8v-41.6l36-20.8l36,20.8V524.8z
	 M851.8,486.1l-31-17.9l-31,17.9v35.8l31,17.9l31-17.9V486.1z M7.2,668.8l36,20.8l36-20.8v-41.6l-36-20.8l-36,20.8V668.8z
	 M129.6,689.6l-36-20.8v-41.6l36-20.8l36,20.8v41.6L129.6,689.6z M98.6,665.9l31,17.9l31-17.9v-35.8l-31-17.9l-31,17.9V665.9z
	 M252,668.8v-41.6l-36-20.8l-36,20.8v41.6l36,20.8L252,668.8z M302.4,689.6l-36-20.8v-41.6l36-20.8l36,20.8v41.6L302.4,689.6z
	 M271.4,665.9l31,17.9l31-17.9v-35.8l-31-17.9l-31,17.9V665.9z M388.8,689.6l-36-20.8v-41.6l36-20.8l36,20.8v41.6L388.8,689.6z
	 M357.8,665.9l31,17.9l31-17.9v-35.8l-31-17.9l-31,17.9V665.9z M511.2,668.8v-41.6l-36-20.8l-36,20.8v41.6l36,20.8L511.2,668.8z
	 M561.6,689.6l-36-20.8v-41.6l36-20.8l36,20.8v41.6L561.6,689.6z M530.6,665.9l31,17.9l31-17.9v-35.8l-31-17.9l-31,17.9V665.9z
	 M648,689.6l-36-20.8v-41.6l36-20.8l36,20.8v41.6L648,689.6z M617,665.9l31,17.9l31-17.9v-35.8l-31-17.9l-31,17.9V665.9z
	 M734.4,689.6l-36-20.8v-41.6l36-20.8l36,20.8v41.6L734.4,689.6z M703.4,665.9l31,17.9l31-17.9v-35.8l-31-17.9l-31,17.9V665.9z
	 M820.8,689.6l-36-20.8v-41.6l36-20.8l36,20.8v41.6L820.8,689.6z M789.8,665.9l31,17.9l31-17.9v-35.8l-31-17.9l-31,17.9V665.9z
	 M79.2,812.8l-36,20.8l-36-20.8v-41.6l36-20.8l36,20.8V812.8z M74.2,774.1l-31-17.9l-31,17.9v35.8l31,17.9l31-17.9V774.1z
	 M165.6,771.2l-36-20.8l-36,20.8v41.6l36,20.8l36-20.8V771.2z M252,771.2l-36-20.8l-36,20.8v41.6l36,20.8l36-20.8V771.2z
	 M338.4,771.2l-36-20.8l-36,20.8v41.6l36,20.8l36-20.8V771.2z M424.8,812.8l-36,20.8l-36-20.8v-41.6l36-20.8l36,20.8V812.8z
	 M419.8,774.1l-31-17.9l-31,17.9v35.8l31,17.9l31-17.9V774.1z M511.2,812.8l-36,20.8l-36-20.8v-41.6l36-20.8l36,20.8V812.8z
	 M506.2,774.1l-31-17.9l-31,17.9v35.8l31,17.9l31-17.9V774.1z M597.6,812.8l-36,20.8l-36-20.8v-41.6l36-20.8l36,20.8V812.8z
	 M592.6,774.1l-31-17.9l-31,17.9v35.8l31,17.9l31-17.9V774.1z M684,771.2l-36-20.8l-36,20.8v41.6l36,20.8l36-20.8V771.2z
	 M770.4,771.2l-36-20.8l-36,20.8v41.6l36,20.8l36-20.8V771.2z M856.8,812.8l-36,20.8l-36-20.8v-41.6l36-20.8l36,20.8V812.8z
	 M851.8,774.1l-31-17.9l-31,17.9v35.8l31,17.9l31-17.9V774.1z"/>
</svg>
