<?xml version="1.0" encoding="utf-8"?>
<!-- Generator: Adobe Illustrator 23.1.0, SVG Export Plug-In . SVG Version: 6.00 Build 0)  -->
<svg version="1.1" id="Layer_1" xmlns="http://www.w3.org/2000/svg" xmlns:xlink="http://www.w3.org/1999/xlink" x="0px" y="0px"
	 viewBox="0 0 864 864" style="enable-background:new 0 0 864 864;" xml:space="preserve">
<path d="M36,20.8L0,41.6V0h36V20.8z M122.4,20.8V0h-72v20.8l36,20.8L122.4,20.8z M208.8,20.8V0h-72v20.8l36,20.8L208.8,20.8z
	 M295.2,20.8V0h-72v20.8l36,20.8L295.2,20.8z M381.6,20.8V0h-72v20.8l36,20.8L381.6,20.8z M468,20.8V0h-72v20.8l36,20.8L468,20.8z
	 M554.4,20.8V0h-72v20.8l36,20.8L554.4,20.8z M640.8,20.8V0h-72v20.8l36,20.8L640.8,20.8z M727.2,20.8V0h-72v20.8l36,20.8
	L727.2,20.8z M813.6,20.8V0h-72v20.8l36,20.8L813.6,20.8z M828,0v20.8l36,20.8V0H828z M36,123.2L0,102.4v83.1l36-20.8V123.2z
	 M50.4,123.2v41.6l36,20.8l36-20.8v-41.6l-36-20.8L50.4,123.2z M136.8,123.2v41.6l36,20.8l36-20.8v-41.6l-36-20.8L136.8,123.2z
	 M223.2,123.2v41.6l36,20.8l36-20.8v-41.6l-36-20.8L223.2,123.2z M309.6,123.2v41.6l36,20.8l36-20.8v-41.6l-36-20.8L309.6,123.2z
	 M396,123.2v41.6l36,20.8l36-20.8v-41.6l-36-20.8L396,123.2z M482.4,123.2v41.6l36,20.8l36-20.8v-41.6l-36-20.8L482.4,123.2z
	 M568.8,123.2v41.6l36,20.8l36-20.8v-41.6l-36-20.8L568.8,123.2z M655.2,123.2v41.6l36,20.8l36-20.8v-41.6l-36-20.8L655.2,123.2z
	 M813.6,123.2l-36-20.8l-36,20.8v41.6l36,20.8l36-20.8V123.2z M828,164.8l36,20.8v-83.1l-36,20.8V164.8z M36,267.2L0,246.4v83.1
	l36-20.8V267.2z M50.4,267.2v41.6l36,20.8l36-20.8v-41.6l-36-20.8L50.4,267.2z M136.8,267.2v41.6l36,20.8l36-20.8v-41.6l-36-20.8
	L136.8,267.2z M223.2,267.2v41.6l36,20.8l36-20.8v-41.6l-36-20.8L223.2,267.2z M309.6,267.2v41.6l36,20.8l36-20.8v-41.6l-36-20.8
	L309.6,267.2z M396,267.2v41.6l36,20.8l36-20.8v-41.6l-36-20.8L396,267.2z M482.4,267.2v41.6l36,20.8l36-20.8v-41.6l-36-20.8
	L482.4,267.2z M568.8,267.2v41.6l36,20.8l36-20.8v-41.6l-36-20.8L568.8,267.2z M655.2,267.2v41.6l36,20.8l36-20.8v-41.6l-36-20.8
	L655.2,267.2z M813.6,267.2l-36-20.8l-36,20.8v41.6l36,20.8l36-20.8V267.2z M828,308.8l36,20.8v-83.1l-36,20.8V308.8z M36,411.2
	L0,390.4v83.1l36-20.8V411.2z M50.4,452.8l36,20.8l36-20.8v-41.6l-36-20.8l-36,20.8V452.8z M136.8,411.2v41.6l36,20.8l36-20.8v-41.6
	l-36-20.8L136.8,411.2z M223.2,411.2v41.6l36,20.8l36-20.8v-41.6l-36-20.8L223.2,411.2z M309.6,411.2v41.6l36,20.8l36-20.8v-41.6
	l-36-20.8L309.6,411.2z M396,411.2v41.6l36,20.8l36-20.8v-41.6l-36-20.8L396,411.2z M482.4,411.2v41.6l36,20.8l36-20.8v-41.6
	l-36-20.8L482.4,411.2z M568.8,411.2v41.6l36,20.8l36-20.8v-41.6l-36-20.8L568.8,411.2z M655.2,411.2v41.6l36,20.8l36-20.8v-41.6
	l-36-20.8L655.2,411.2z M813.6,411.2l-36-20.8l-36,20.8v41.6l36,20.8l36-20.8V411.2z M828,452.8l36,20.8v-83.1l-36,20.8V452.8z
	 M36,555.2L0,534.4v83.1l36-20.8V555.2z M50.4,596.8l36,20.8l36-20.8v-41.6l-36-20.8l-36,20.8V596.8z M208.8,596.8v-41.6l-36-20.8
	l-36,20.8v41.6l36,20.8L208.8,596.8z M295.2,596.8v-41.6l-36-20.8l-36,20.8v41.6l36,20.8L295.2,596.8z M381.6,596.8v-41.6l-36-20.8
	l-36,20.8v41.6l36,20.8L381.6,596.8z M468,596.8v-41.6l-36-20.8l-36,20.8v41.6l36,20.8L468,596.8z M554.4,596.8v-41.6l-36-20.8
	l-36,20.8v41.6l36,20.8L554.4,596.8z M640.8,596.8v-41.6l-36-20.8l-36,20.8v41.6l36,20.8L640.8,596.8z M727.2,596.8v-41.6l-36-20.8
	l-36,20.8v41.6l36,20.8L727.2,596.8z M813.6,596.8v-41.6l-36-20.8l-36,20.8v41.6l36,20.8L813.6,596.8z M828,596.8l36,20.8v-83.1
	l-36,20.8V596.8z M36,699.2L0,678.4v83.1l36-20.8V699.2z M122.4,740.8v-41.6l-36-20.8l-36,20.8v41.6l36,20.8L122.4,740.8z
	 M208.8,740.8v-41.6l-36-20.8l-36,20.8v41.6l36,20.8L208.8,740.8z M295.2,740.8v-41.6l-36-20.8l-36,20.8v41.6l36,20.8L295.2,740.8z
	 M381.6,740.8v-41.6l-36-20.8l-36,20.8v41.6l36,20.8L381.6,740.8z M468,740.8v-41.6l-36-20.8l-36,20.8v41.6l36,20.8L468,740.8z
	 M554.4,740.8v-41.6l-36-20.8l-36,20.8v41.6l36,20.8L554.4,740.8z M640.8,740.8v-41.6l-36-20.8l-36,20.8v41.6l36,20.8L640.8,740.8z
	 M727.2,740.8v-41.6l-36-20.8l-36,20.8v41.6l36,20.8L727.2,740.8z M813.6,740.8v-41.6l-36-20.8l-36,20.8v41.6l36,20.8L813.6,740.8z
	 M828,740.8l36,20.8v-83.1l-36,20.8V740.8z M0,864h36v-20.8L0,822.4V864z M50.4,843.2V864h72v-20.8l-36-20.8L50.4,843.2z
	 M136.8,843.2V864h72v-20.8l-36-20.8L136.8,843.2z M223.2,843.2V864h72v-20.8l-36-20.8L223.2,843.2z M309.6,843.2V864h72v-20.8
	l-36-20.8L309.6,843.2z M396,843.2V864h72v-20.8l-36-20.8L396,843.2z M482.4,843.2V864h72v-20.8l-36-20.8L482.4,843.2z M568.8,843.2
	V864h72v-20.8l-36-20.8L568.8,843.2z M655.2,843.2V864h72v-20.8l-36-20.8L655.2,843.2z M741.6,843.2V864h72v-20.8l-36-20.8
	L741.6,843.2z M828,864h36v-41.6l-36,20.8V864z M7.2,92.8l36,20.8l36-20.8V51.2l-36-20.8l-36,20.8V92.8z M93.6,92.8l36,20.8l36-20.8
	V51.2l-36-20.8l-36,20.8V92.8z M180,92.8l36,20.8l36-20.8V51.2l-36-20.8l-36,20.8V92.8z M266.4,92.8l36,20.8l36-20.8V51.2l-36-20.8
	l-36,20.8V92.8z M352.8,92.8l36,20.8l36-20.8V51.2l-36-20.8l-36,20.8V92.8z M439.2,92.8l36,20.8l36-20.8V51.2l-36-20.8l-36,20.8
	V92.8z M525.6,92.8l36,20.8l36-20.8V51.2l-36-20.8l-36,20.8V92.8z M612,92.8l36,20.8l36-20.8V51.2l-36-20.8l-36,20.8V92.8z
	 M698.4,92.8l36,20.8l36-20.8V51.2l-36-20.8l-36,20.8V92.8z M856.8,51.2l-36-20.8l-36,20.8v41.6l36,20.8l36-20.8V51.2z M7.2,195.2
	v41.6l36,20.8l36-20.8v-41.6l-36-20.8L7.2,195.2z M93.6,195.2v41.6l36,20.8l36-20.8v-41.6l-36-20.8L93.6,195.2z M180,195.2v41.6
	l36,20.8l36-20.8v-41.6l-36-20.8L180,195.2z M266.4,195.2v41.6l36,20.8l36-20.8v-41.6l-36-20.8L266.4,195.2z M352.8,195.2v41.6
	l36,20.8l36-20.8v-41.6l-36-20.8L352.8,195.2z M439.2,195.2v41.6l36,20.8l36-20.8v-41.6l-36-20.8L439.2,195.2z M525.6,195.2v41.6
	l36,20.8l36-20.8v-41.6l-36-20.8L525.6,195.2z M612,195.2v41.6l36,20.8l36-20.8v-41.6l-36-20.8L612,195.2z M698.4,195.2v41.6
	l36,20.8l36-20.8v-41.6l-36-20.8L698.4,195.2z M856.8,195.2l-36-20.8l-36,20.8v41.6l36,20.8l36-20.8V195.2z M7.2,380.8l36,20.8
	l36-20.8v-41.6l-36-20.8l-36,20.8V380.8z M93.6,339.2v41.6l36,20.8l36-20.8v-41.6l-36-20.8L93.6,339.2z M180,339.2v41.6l36,20.8
	l36-20.8v-41.6l-36-20.8L180,339.2z M266.4,339.2v41.6l36,20.8l36-20.8v-41.6l-36-20.8L266.4,339.2z M352.8,339.2v41.6l36,20.8
	l36-20.8v-41.6l-36-20.8L352.8,339.2z M439.2,339.2v41.6l36,20.8l36-20.8v-41.6l-36-20.8L439.2,339.2z M525.6,339.2v41.6l36,20.8
	l36-20.8v-41.6l-36-20.8L525.6,339.2z M612,339.2v41.6l36,20.8l36-20.8v-41.6l-36-20.8L612,339.2z M770.4,380.8v-41.6l-36-20.8
	l-36,20.8v41.6l36,20.8L770.4,380.8z M856.8,339.2l-36-20.8l-36,20.8v41.6l36,20.8l36-20.8V339.2z M7.2,524.8l36,20.8l36-20.8v-41.6
	l-36-20.8l-36,20.8V524.8z M165.6,524.8v-41.6l-36-20.8l-36,20.8v41.6l36,20.8L165.6,524.8z M252,524.8v-41.6l-36-20.8l-36,20.8
	v41.6l36,20.8L252,524.8z M338.4,524.8v-41.6l-36-20.8l-36,20.8v41.6l36,20.8L338.4,524.8z M424.8,524.8v-41.6l-36-20.8l-36,20.8
	v41.6l36,20.8L424.8,524.8z M511.2,524.8v-41.6l-36-20.8l-36,20.8v41.6l36,20.8L511.2,524.8z M597.6,524.8v-41.6l-36-20.8l-36,20.8
	v41.6l36,20.8L597.6,524.8z M684,524.8v-41.6l-36-20.8l-36,20.8v41.6l36,20.8L684,524.8z M770.4,524.8v-41.6l-36-20.8l-36,20.8v41.6
	l36,20.8L770.4,524.8z M856.8,483.2l-36-20.8l-36,20.8v41.6l36,20.8l36-20.8V483.2z M7.2,668.8l36,20.8l36-20.8v-41.6l-36-20.8
	l-36,20.8V668.8z M165.6,668.8v-41.6l-36-20.8l-36,20.8v41.6l36,20.8L165.6,668.8z M252,668.8v-41.6l-36-20.8l-36,20.8v41.6l36,20.8
	L252,668.8z M338.4,668.8v-41.6l-36-20.8l-36,20.8v41.6l36,20.8L338.4,668.8z M424.8,668.8v-41.6l-36-20.8l-36,20.8v41.6l36,20.8
	L424.8,668.8z M511.2,668.8v-41.6l-36-20.8l-36,20.8v41.6l36,20.8L511.2,668.8z M597.6,668.8v-41.6l-36-20.8l-36,20.8v41.6l36,20.8
	L597.6,668.8z M684,668.8v-41.6l-36-20.8l-36,20.8v41.6l36,20.8L684,668.8z M770.4,668.8v-41.6l-36-20.8l-36,20.8v41.6l36,20.8
	L770.4,668.8z M856.8,668.8v-41.6l-36-20.8l-36,20.8v41.6l36,20.8L856.8,668.8z M79.2,771.2l-36-20.8l-36,20.8v41.6l36,20.8l36-20.8
	V771.2z M165.6,771.2l-36-20.8l-36,20.8v41.6l36,20.8l36-20.8V771.2z M252,771.2l-36-20.8l-36,20.8v41.6l36,20.8l36-20.8V771.2z
	 M338.4,771.2l-36-20.8l-36,20.8v41.6l36,20.8l36-20.8V771.2z M424.8,771.2l-36-20.8l-36,20.8v41.6l36,20.8l36-20.8V771.2z
	 M511.2,771.2l-36-20.8l-36,20.8v41.6l36,20.8l36-20.8V771.2z M597.6,771.2l-36-20.8l-36,20.8v41.6l36,20.8l36-20.8V771.2z
	 M684,771.2l-36-20.8l-36,20.8v41.6l36,20.8l36-20.8V771.2z M770.4,771.2l-36-20.8l-36,20.8v41.6l36,20.8l36-20.8V771.2z
	 M856.8,771.2l-36-20.8l-36,20.8v41.6l36,20.8l36-20.8V771.2z"/>
</svg>
